<svg width="30" height="30" viewBox="0 0 30 30" fill="none" xmlns="http://www.w3.org/2000/svg">
<path d="M17.5231 2.4541C18.0382 2.45424 18.5402 2.61643 18.958 2.9177C19.3758 3.21898 19.6882 3.64407 19.8509 4.13275L20.5172 6.13535H24.5421C24.8675 6.13535 25.1796 6.26463 25.4097 6.49476C25.6399 6.72488 25.7691 7.03699 25.7691 7.36244C25.7691 7.68788 25.6399 7.99999 25.4097 8.23011C25.1796 8.46024 24.8675 8.58952 24.5421 8.58952L24.5384 8.67664L23.4745 23.5771C23.4081 24.5055 22.9925 25.3743 22.3113 26.0087C21.6301 26.643 20.7339 26.9957 19.8031 26.9958H9.64772C8.71692 26.9957 7.82073 26.643 7.13952 26.0087C6.45832 25.3743 6.04268 24.5055 5.97629 23.5771L4.91241 8.67542C4.91018 8.64683 4.90896 8.61818 4.90872 8.58952C4.58328 8.58952 4.27117 8.46024 4.04104 8.23011C3.81092 7.99999 3.68164 7.68788 3.68164 7.36244C3.68164 7.03699 3.81092 6.72488 4.04104 6.49476C4.27117 6.26463 4.58328 6.13535 4.90872 6.13535H8.93356L9.59986 4.13275C9.7627 3.64387 10.0753 3.21864 10.4933 2.91734C10.9113 2.61605 11.4136 2.45398 11.9289 2.4541H17.5231ZM22.0842 8.58952H7.36657L8.42432 23.4016C8.44635 23.7111 8.58479 24.0008 8.81178 24.2123C9.03877 24.4238 9.33746 24.5415 9.64772 24.5416H19.8031C20.1133 24.5415 20.412 24.4238 20.639 24.2123C20.866 24.0008 21.0044 23.7111 21.0265 23.4016L22.0842 8.58952ZM12.2712 12.2708C12.5718 12.2708 12.8619 12.3812 13.0865 12.5809C13.3111 12.7806 13.4546 13.0558 13.4897 13.3543L13.4983 13.4979V19.6333C13.498 19.946 13.3782 20.2469 13.1635 20.4743C12.9488 20.7017 12.6554 20.8386 12.3431 20.8569C12.0309 20.8752 11.7235 20.7736 11.4836 20.5729C11.2438 20.3722 11.0897 20.0874 11.0527 19.7768L11.0441 19.6333V13.4979C11.0441 13.1724 11.1734 12.8603 11.4035 12.6302C11.6337 12.4001 11.9458 12.2708 12.2712 12.2708ZM17.1796 12.2708C17.505 12.2708 17.8171 12.4001 18.0472 12.6302C18.2774 12.8603 18.4066 13.1724 18.4066 13.4979V19.6333C18.4066 19.9587 18.2774 20.2708 18.0472 20.5009C17.8171 20.7311 17.505 20.8604 17.1796 20.8604C16.8541 20.8604 16.542 20.7311 16.3119 20.5009C16.0818 20.2708 15.9525 19.9587 15.9525 19.6333V13.4979C15.9525 13.1724 16.0818 12.8603 16.3119 12.6302C16.542 12.4001 16.8541 12.2708 17.1796 12.2708ZM17.5231 4.90827H11.9276L11.519 6.13535H17.9318L17.5231 4.90827Z" fill="#BC3914"/>
</svg>
