<svg width="25" height="24" viewBox="0 0 25 24" fill="none" xmlns="http://www.w3.org/2000/svg">
<g clip-path="url(#clip0_626_5412)">
<path d="M21.5266 20.0003C21.5266 20.2655 21.4225 20.5198 21.2372 20.7074C21.0519 20.8949 20.8006 21.0003 20.5386 21.0003H4.73021C4.46817 21.0003 4.21686 20.8949 4.03157 20.7074C3.84628 20.5198 3.74219 20.2655 3.74219 20.0003V9.49027C3.74208 9.33788 3.77639 9.18749 3.84249 9.05057C3.90859 8.91365 4.00473 8.79384 4.12356 8.70027L12.0278 2.47827C12.2012 2.34172 12.4147 2.26758 12.6344 2.26758C12.8541 2.26758 13.0676 2.34172 13.2411 2.47827L21.1452 8.70027C21.2641 8.79384 21.3602 8.91365 21.4263 9.05057C21.4924 9.18749 21.5267 9.33788 21.5266 9.49027V20.0003ZM19.5506 19.0003V9.97827L12.6344 4.53427L5.71824 9.97827V19.0003H19.5506Z" fill="#333333"/>
</g>
<defs>
<clipPath id="clip0_626_5412">
<rect width="23.7126" height="24" fill="white" transform="translate(0.77832)"/>
</clipPath>
</defs>
</svg>
