<svg width="80" height="81" viewBox="0 0 80 81" fill="none" xmlns="http://www.w3.org/2000/svg">
<g id="ic:twotone-add-photo-alternate">
<path id="Vector" d="M34.033 56.5529L27.4997 48.6863L18.333 60.4529H54.9997L43.1997 44.7529L34.033 56.5529Z" fill="#333333"/>
<path id="Vector_2" opacity="0.3" d="M54.9997 60.4531H18.333L27.4997 48.6865L34.033 56.5531L43.1997 44.7531L54.9997 60.4531ZM56.6663 23.7865H46.6663V20.4531H13.333V67.1198H59.9997V33.7865H56.6663V23.7865Z" fill="#333333"/>
<path id="Vector_3" d="M66.667 13.7861V3.78613H60.0003V13.7861H50.0003V20.4528H60.0003V30.4195H66.667V20.4528H76.667V13.7861H66.667ZM60.0003 67.1195H13.3337V20.4528H46.667V13.7861H13.3337C9.66699 13.7861 6.66699 16.7861 6.66699 20.4528V67.1195C6.66699 70.7861 9.66699 73.7861 13.3337 73.7861H60.0003C63.667 73.7861 66.667 70.7861 66.667 67.1195V33.7861H60.0003V67.1195Z" fill="#333333"/>
</g>
</svg>
