<svg width="24" height="28" viewBox="0 0 24 28" fill="none" xmlns="http://www.w3.org/2000/svg">
<path d="M12 24C18.6274 24 24 18.6274 24 12C24 5.37258 18.6274 0 12 0C5.37258 0 0 5.37258 0 12C0 18.6274 5.37258 24 12 24Z" fill="#0A216F"/>
<path d="M11.9999 22.91C18.0254 22.91 22.91 18.0254 22.91 11.9999C22.91 5.97445 18.0254 1.08984 11.9999 1.08984C5.97445 1.08984 1.08984 5.97445 1.08984 11.9999C1.08984 18.0254 5.97445 22.91 11.9999 22.91Z" stroke="white" stroke-width="2" stroke-miterlimit="10"/>
<path fill-rule="evenodd" clip-rule="evenodd" d="M19.976 11.6351C19.8467 11.5273 19.5896 11.5919 19.3526 11.7428C19.2879 11.7859 19.2233 11.8506 19.1802 11.9152C18.9231 12.1723 17.6761 13.6132 17.6546 13.6348L17.633 13.6779H17.6546C17.9332 13.721 18.1056 13.8288 18.1487 13.9796C18.1918 14.1952 18.0194 14.4738 17.6115 14.7524C17.2451 14.9895 16.774 15.225 16.1505 15.4406C16.2152 15.419 16.2798 15.3759 16.3445 15.3328C16.7524 15.0973 17.1188 14.9033 17.3975 14.7093C17.827 14.4091 17.9778 14.1936 17.9132 13.9996C17.8701 13.8703 17.7408 13.8057 17.5468 13.8488C17.3328 13.8488 16.9449 13.9996 16.58 14.1505C16.3229 14.2583 16.0859 14.3445 15.9134 14.386C15.29 14.5585 14.6465 14.7309 14.023 15.1604C13.9368 15.225 13.829 15.3113 13.7444 15.3759C13.2933 15.7639 12.8854 16.1503 12.4543 16.5798L12.3896 16.6229L13.7875 17.2894C13.8952 17.1817 14.023 17.0739 14.1523 16.9877C14.3247 16.8584 14.4756 16.7722 14.668 16.7091C14.8836 16.6229 15.4639 16.4289 16.0227 16.2365C16.6031 16.0425 17.1619 15.8501 17.3544 15.7854C17.4837 15.7208 17.5699 15.6776 17.6761 15.5914C17.9132 15.4406 18.1056 15.1404 18.278 14.8818C18.3211 14.7955 18.3858 14.7093 18.4289 14.6031L19.956 12.1107C20.1285 11.8321 20.0623 11.7028 19.976 11.6381V11.6351Z" fill="white"/>
<path fill-rule="evenodd" clip-rule="evenodd" d="M9.87575 11.2273V11.5491C10.1113 11.6784 10.3268 11.7862 10.5208 11.8724C9.53245 12.2803 8.90897 12.2803 8.75811 13.4842H6.7168C6.7168 11.8508 7.31872 12.2588 8.54412 11.5491V11.2689C8.3286 11.118 8.28703 10.8394 8.22238 10.5592C8.17927 10.5592 8.15772 10.5161 8.15772 10.4515V10.4299C8.13617 10.3868 8.11462 10.3437 8.09306 10.279C8.07305 10.1928 7.98684 10.0204 8.04996 9.93421C8.11462 9.8911 8.15772 9.93421 8.15772 9.93421C8.07151 9.48315 7.9422 8.85967 8.60878 8.68725C8.60878 8.2793 10.1128 8.45018 10.2852 9.09521C10.3714 9.35383 10.2637 9.93267 10.2637 9.93267C10.2852 9.88956 10.3068 9.88956 10.3499 9.91111C10.4361 9.97577 10.3499 10.2128 10.3299 10.276C10.3083 10.3406 10.2868 10.3837 10.2652 10.4268V10.4484C10.2652 10.513 10.2437 10.5561 10.2006 10.5561C10.1359 10.8148 10.0713 11.0934 9.87882 11.2227L9.87575 11.2273Z" fill="white"/>
<path fill-rule="evenodd" clip-rule="evenodd" d="M12.8622 11.2918V11.7013C14.3894 12.5818 15.1622 12.1308 15.1622 14.109H8.90894C8.90894 12.0661 9.68174 12.5834 11.2089 11.7013V11.3564C10.9502 11.1625 10.8856 10.8192 10.7794 10.4543C10.7363 10.4543 10.7147 10.3897 10.7147 10.325V10.2819C10.6716 10.2388 10.6716 10.1957 10.6285 10.1095C10.6069 10.0017 10.4992 9.76464 10.5854 9.67843C10.6716 9.61377 10.7147 9.67843 10.7147 9.67843C10.6069 9.09806 10.4576 8.32372 11.2735 8.08818C11.2735 7.59402 13.1655 7.83109 13.401 8.62545C13.4873 8.94719 13.3579 9.67843 13.3579 9.67843C13.3795 9.61377 13.4226 9.61377 13.4657 9.63533C13.5735 9.69998 13.4657 10.0002 13.4226 10.1079C13.401 10.1941 13.3795 10.2588 13.3579 10.3019V10.3235C13.3579 10.3881 13.3148 10.4528 13.2717 10.4528C13.2071 10.7761 13.1209 11.1194 12.8638 11.2902L12.8622 11.2918Z" fill="#22A9C5"/>
<path fill-rule="evenodd" clip-rule="evenodd" d="M15.57 11.2273V11.5491C16.7738 12.2588 17.3973 11.8924 17.3973 13.4842H15.3129C15.1405 12.345 14.517 12.3019 13.5718 11.8724C13.7657 11.7862 13.9797 11.7 14.2384 11.5491V11.2689C14.0244 11.118 13.9813 10.8394 13.8951 10.5592C13.8735 10.5592 13.852 10.5161 13.852 10.4515V10.4299C13.8304 10.3868 13.8089 10.3437 13.7873 10.279C13.7657 10.1928 13.6795 10.0204 13.7657 9.93421C13.8089 9.8911 13.852 9.93421 13.852 9.93421C13.7657 9.48315 13.658 8.85967 14.303 8.68725C14.303 8.2793 15.8071 8.45018 15.9795 9.09521C16.0657 9.35383 15.9579 9.93267 15.9579 9.93267C15.9795 9.88956 16.001 9.88956 16.0441 9.91111C16.1303 9.97577 16.0441 10.2128 16.0241 10.276C16.0026 10.3406 15.981 10.3837 15.9595 10.4268V10.4484C15.9595 10.513 15.9379 10.5561 15.8948 10.5561C15.8301 10.8148 15.7655 11.0934 15.5731 11.2227L15.57 11.2273Z" fill="white"/>
<path fill-rule="evenodd" clip-rule="evenodd" d="M4.00725 11.6351C4.13656 11.5273 4.39365 11.5919 4.63072 11.7428C4.69538 11.7859 4.76004 11.8506 4.80314 11.9152C5.06023 12.1723 6.30718 13.6132 6.32874 13.6348L6.35029 13.6779H6.32874C6.0501 13.721 5.87768 13.8288 5.83457 13.9796C5.79147 14.1952 5.96389 14.4738 6.37184 14.7524C6.73823 14.9895 7.23239 15.225 7.83278 15.4406C7.76812 15.419 7.70346 15.3759 7.63881 15.3328C7.23085 15.0973 6.86446 14.9033 6.58582 14.7093C6.15632 14.4091 6.00545 14.1936 6.07011 13.9996C6.11321 13.8703 6.24253 13.8057 6.4365 13.8488C6.65202 13.8488 7.03842 13.9996 7.40327 14.1505C7.66036 14.2583 7.89743 14.3445 8.06985 14.386C8.69333 14.5585 9.33682 14.7309 9.96029 15.1604C10.0465 15.225 10.1543 15.3113 10.2389 15.3759C10.69 15.7639 11.0995 16.1503 11.529 16.5798L11.5936 16.6229L10.1958 17.2894C10.0881 17.1817 9.96029 17.0739 9.83098 16.9877C9.65856 16.8584 9.5077 16.7722 9.33682 16.7091C9.10128 16.6229 8.52091 16.4289 7.96055 16.2365C7.38018 16.0425 6.82136 15.8501 6.62893 15.7854C6.49961 15.7208 6.41341 15.6776 6.30718 15.5914C6.07011 15.4406 5.87768 15.1404 5.70526 14.8818C5.66215 14.7955 5.5975 14.7093 5.55439 14.6031L4.00725 12.1107C3.85638 11.8321 3.92104 11.7028 4.00725 11.6381V11.6351Z" fill="white"/>
</svg>
